<mxfile host="app.diagrams.net" modified="2023-11-19T13:38:52.191Z" agent="Mozilla/5.0 (Macintosh; Intel Mac OS X 10_15_7) AppleWebKit/605.1.15 (KHTML, like Gecko) Version/17.0 Safari/605.1.15" etag="ZdwAbXzYhV74xP9l3Rga" version="22.1.3" type="github" pages="2">
  <diagram name="Page-1" id="aSyT265ElmOJqsFHJD5m">
    <mxGraphModel dx="1434" dy="827" grid="1" gridSize="10" guides="1" tooltips="1" connect="1" arrows="1" fold="1" page="1" pageScale="1" pageWidth="827" pageHeight="1169" math="0" shadow="0">
      <root>
        <mxCell id="0" />
        <mxCell id="1" parent="0" />
        <mxCell id="nl2lWIYxEdHxsHxhIvSZ-3" value="" style="edgeStyle=orthogonalEdgeStyle;rounded=0;orthogonalLoop=1;jettySize=auto;html=1;fontSize=22;" edge="1" parent="1" source="nl2lWIYxEdHxsHxhIvSZ-1" target="nl2lWIYxEdHxsHxhIvSZ-2">
          <mxGeometry relative="1" as="geometry" />
        </mxCell>
        <mxCell id="nl2lWIYxEdHxsHxhIvSZ-1" value="NestJS:&amp;nbsp;&lt;br style=&quot;font-size: 22px;&quot;&gt;Framework Vs library.: Generic work / general / common work is already done by the framework . &amp;nbsp;Architecture : Frameworks are the implementations of architecture. Library : will hold only functionality those functions we can use it as per our req." style="rounded=1;whiteSpace=wrap;html=1;fontSize=22;" vertex="1" parent="1">
          <mxGeometry x="30" y="120" width="620" height="160" as="geometry" />
        </mxCell>
        <mxCell id="nl2lWIYxEdHxsHxhIvSZ-2" value="Nest JS : it&#39;s a rest api based framework&amp;nbsp;&lt;br style=&quot;font-size: 22px;&quot;&gt;it will have complete segregation for app development (rest api)." style="whiteSpace=wrap;html=1;fontSize=22;rounded=1;" vertex="1" parent="1">
          <mxGeometry x="110" y="430" width="460" height="100" as="geometry" />
        </mxCell>
        <mxCell id="nl2lWIYxEdHxsHxhIvSZ-6" value="" style="edgeStyle=orthogonalEdgeStyle;rounded=0;orthogonalLoop=1;jettySize=auto;html=1;fontSize=22;" edge="1" parent="1" source="nl2lWIYxEdHxsHxhIvSZ-4" target="nl2lWIYxEdHxsHxhIvSZ-5">
          <mxGeometry relative="1" as="geometry" />
        </mxCell>
        <mxCell id="nl2lWIYxEdHxsHxhIvSZ-4" value="Clients" style="rounded=1;whiteSpace=wrap;html=1;fontSize=22;" vertex="1" parent="1">
          <mxGeometry x="30" y="640" width="120" height="60" as="geometry" />
        </mxCell>
        <mxCell id="nl2lWIYxEdHxsHxhIvSZ-9" style="edgeStyle=orthogonalEdgeStyle;rounded=0;orthogonalLoop=1;jettySize=auto;html=1;entryX=0.5;entryY=1;entryDx=0;entryDy=0;fontSize=22;" edge="1" parent="1" source="nl2lWIYxEdHxsHxhIvSZ-5" target="nl2lWIYxEdHxsHxhIvSZ-4">
          <mxGeometry relative="1" as="geometry">
            <Array as="points">
              <mxPoint x="90" y="790" />
            </Array>
          </mxGeometry>
        </mxCell>
        <mxCell id="nl2lWIYxEdHxsHxhIvSZ-5" value="" style="whiteSpace=wrap;html=1;rounded=1;fontSize=22;" vertex="1" parent="1">
          <mxGeometry x="360" y="560" width="610" height="340" as="geometry" />
        </mxCell>
        <mxCell id="nl2lWIYxEdHxsHxhIvSZ-7" value="NestJSapp" style="text;html=1;strokeColor=none;fillColor=none;align=center;verticalAlign=middle;whiteSpace=wrap;rounded=0;fontSize=22;" vertex="1" parent="1">
          <mxGeometry x="384" y="570" width="60" height="30" as="geometry" />
        </mxCell>
        <mxCell id="nl2lWIYxEdHxsHxhIvSZ-13" value="" style="edgeStyle=orthogonalEdgeStyle;rounded=0;orthogonalLoop=1;jettySize=auto;html=1;" edge="1" parent="1" source="nl2lWIYxEdHxsHxhIvSZ-8" target="nl2lWIYxEdHxsHxhIvSZ-12">
          <mxGeometry relative="1" as="geometry" />
        </mxCell>
        <mxCell id="nl2lWIYxEdHxsHxhIvSZ-8" value="Module" style="rounded=1;whiteSpace=wrap;html=1;fontSize=22;" vertex="1" parent="1">
          <mxGeometry x="420" y="630" width="120" height="60" as="geometry" />
        </mxCell>
        <mxCell id="nl2lWIYxEdHxsHxhIvSZ-10" value="req" style="text;html=1;strokeColor=none;fillColor=none;align=center;verticalAlign=middle;whiteSpace=wrap;rounded=0;fontSize=22;" vertex="1" parent="1">
          <mxGeometry x="180" y="630" width="60" height="30" as="geometry" />
        </mxCell>
        <mxCell id="nl2lWIYxEdHxsHxhIvSZ-11" value="res" style="text;html=1;strokeColor=none;fillColor=none;align=center;verticalAlign=middle;whiteSpace=wrap;rounded=0;fontSize=22;" vertex="1" parent="1">
          <mxGeometry x="150" y="750" width="60" height="30" as="geometry" />
        </mxCell>
        <mxCell id="nl2lWIYxEdHxsHxhIvSZ-15" value="" style="edgeStyle=orthogonalEdgeStyle;rounded=0;orthogonalLoop=1;jettySize=auto;html=1;" edge="1" parent="1" source="nl2lWIYxEdHxsHxhIvSZ-12" target="nl2lWIYxEdHxsHxhIvSZ-14">
          <mxGeometry relative="1" as="geometry" />
        </mxCell>
        <mxCell id="nl2lWIYxEdHxsHxhIvSZ-12" value="controller" style="whiteSpace=wrap;html=1;fontSize=22;rounded=1;" vertex="1" parent="1">
          <mxGeometry x="420" y="770" width="120" height="60" as="geometry" />
        </mxCell>
        <mxCell id="nl2lWIYxEdHxsHxhIvSZ-17" value="" style="edgeStyle=orthogonalEdgeStyle;rounded=0;orthogonalLoop=1;jettySize=auto;html=1;" edge="1" parent="1" source="nl2lWIYxEdHxsHxhIvSZ-14" target="nl2lWIYxEdHxsHxhIvSZ-16">
          <mxGeometry relative="1" as="geometry" />
        </mxCell>
        <mxCell id="nl2lWIYxEdHxsHxhIvSZ-14" value="service" style="whiteSpace=wrap;html=1;fontSize=22;rounded=1;" vertex="1" parent="1">
          <mxGeometry x="620" y="770" width="120" height="60" as="geometry" />
        </mxCell>
        <mxCell id="py9a9nmADaAPguHGY0vS-6" value="" style="edgeStyle=orthogonalEdgeStyle;rounded=0;orthogonalLoop=1;jettySize=auto;html=1;" edge="1" parent="1" source="nl2lWIYxEdHxsHxhIvSZ-16" target="py9a9nmADaAPguHGY0vS-5">
          <mxGeometry relative="1" as="geometry" />
        </mxCell>
        <mxCell id="nl2lWIYxEdHxsHxhIvSZ-16" value="nestjs/mongoose" style="whiteSpace=wrap;html=1;fontSize=22;rounded=1;" vertex="1" parent="1">
          <mxGeometry x="820" y="770" width="170" height="60" as="geometry" />
        </mxCell>
        <mxCell id="nl2lWIYxEdHxsHxhIvSZ-18" value="DB" style="shape=cylinder3;whiteSpace=wrap;html=1;boundedLbl=1;backgroundOutline=1;size=15;fontSize=22;" vertex="1" parent="1">
          <mxGeometry x="1350" y="725" width="60" height="80" as="geometry" />
        </mxCell>
        <mxCell id="nl2lWIYxEdHxsHxhIvSZ-20" value="req processing" style="text;html=1;strokeColor=none;fillColor=none;align=center;verticalAlign=middle;whiteSpace=wrap;rounded=0;" vertex="1" parent="1">
          <mxGeometry x="444" y="850" width="60" height="30" as="geometry" />
        </mxCell>
        <mxCell id="nl2lWIYxEdHxsHxhIvSZ-21" value="business logic" style="text;html=1;strokeColor=none;fillColor=none;align=center;verticalAlign=middle;whiteSpace=wrap;rounded=0;" vertex="1" parent="1">
          <mxGeometry x="640" y="850" width="60" height="30" as="geometry" />
        </mxCell>
        <mxCell id="nl2lWIYxEdHxsHxhIvSZ-22" value="DB related codes" style="text;html=1;strokeColor=none;fillColor=none;align=center;verticalAlign=middle;whiteSpace=wrap;rounded=0;" vertex="1" parent="1">
          <mxGeometry x="850" y="860" width="60" height="30" as="geometry" />
        </mxCell>
        <mxCell id="nl2lWIYxEdHxsHxhIvSZ-23" value="database." style="text;html=1;strokeColor=none;fillColor=none;align=center;verticalAlign=middle;whiteSpace=wrap;rounded=0;" vertex="1" parent="1">
          <mxGeometry x="1130" y="960" width="60" height="30" as="geometry" />
        </mxCell>
        <mxCell id="py9a9nmADaAPguHGY0vS-1" value="specs&amp;nbsp;&lt;br&gt;collections(tables) should be created automatically)." style="rounded=1;whiteSpace=wrap;html=1;" vertex="1" parent="1">
          <mxGeometry x="800" y="660" width="120" height="60" as="geometry" />
        </mxCell>
        <mxCell id="py9a9nmADaAPguHGY0vS-5" value="mongoose" style="whiteSpace=wrap;html=1;fontSize=22;rounded=1;" vertex="1" parent="1">
          <mxGeometry x="1095" y="770" width="120" height="60" as="geometry" />
        </mxCell>
        <mxCell id="py9a9nmADaAPguHGY0vS-7" style="edgeStyle=orthogonalEdgeStyle;rounded=0;orthogonalLoop=1;jettySize=auto;html=1;entryX=0;entryY=0;entryDx=0;entryDy=52.5;entryPerimeter=0;" edge="1" parent="1" source="py9a9nmADaAPguHGY0vS-5" target="nl2lWIYxEdHxsHxhIvSZ-18">
          <mxGeometry relative="1" as="geometry" />
        </mxCell>
      </root>
    </mxGraphModel>
  </diagram>
  <diagram id="kyvicFzai8zgmdrQlqwA" name="Page-2">
    <mxGraphModel dx="1434" dy="827" grid="1" gridSize="10" guides="1" tooltips="1" connect="1" arrows="1" fold="1" page="1" pageScale="1" pageWidth="827" pageHeight="1169" math="0" shadow="0">
      <root>
        <mxCell id="0" />
        <mxCell id="1" parent="0" />
        <mxCell id="xQpyA3fxVmrNv80CWpz7-3" value="" style="edgeStyle=orthogonalEdgeStyle;rounded=0;orthogonalLoop=1;jettySize=auto;html=1;" edge="1" parent="1" source="xQpyA3fxVmrNv80CWpz7-1" target="xQpyA3fxVmrNv80CWpz7-2">
          <mxGeometry relative="1" as="geometry" />
        </mxCell>
        <mxCell id="xQpyA3fxVmrNv80CWpz7-5" value="" style="edgeStyle=orthogonalEdgeStyle;rounded=0;orthogonalLoop=1;jettySize=auto;html=1;" edge="1" parent="1" source="xQpyA3fxVmrNv80CWpz7-1" target="xQpyA3fxVmrNv80CWpz7-4">
          <mxGeometry relative="1" as="geometry" />
        </mxCell>
        <mxCell id="xQpyA3fxVmrNv80CWpz7-7" value="" style="edgeStyle=orthogonalEdgeStyle;rounded=0;orthogonalLoop=1;jettySize=auto;html=1;" edge="1" parent="1" source="xQpyA3fxVmrNv80CWpz7-1" target="xQpyA3fxVmrNv80CWpz7-6">
          <mxGeometry relative="1" as="geometry" />
        </mxCell>
        <mxCell id="xQpyA3fxVmrNv80CWpz7-1" value="Devconnector" style="rounded=1;whiteSpace=wrap;html=1;fontSize=22;" vertex="1" parent="1">
          <mxGeometry x="354" y="150" width="296" height="60" as="geometry" />
        </mxCell>
        <mxCell id="xQpyA3fxVmrNv80CWpz7-2" value="Users" style="whiteSpace=wrap;html=1;fontSize=22;rounded=1;" vertex="1" parent="1">
          <mxGeometry x="140" y="380" width="120" height="60" as="geometry" />
        </mxCell>
        <mxCell id="xQpyA3fxVmrNv80CWpz7-4" value="Profile" style="whiteSpace=wrap;html=1;fontSize=22;rounded=1;" vertex="1" parent="1">
          <mxGeometry x="442" y="380" width="120" height="60" as="geometry" />
        </mxCell>
        <mxCell id="xQpyA3fxVmrNv80CWpz7-6" value="auth" style="whiteSpace=wrap;html=1;fontSize=22;rounded=1;" vertex="1" parent="1">
          <mxGeometry x="800" y="380" width="120" height="60" as="geometry" />
        </mxCell>
        <mxCell id="xQpyA3fxVmrNv80CWpz7-10" value="" style="edgeStyle=orthogonalEdgeStyle;rounded=0;orthogonalLoop=1;jettySize=auto;html=1;" edge="1" parent="1" source="xQpyA3fxVmrNv80CWpz7-8" target="xQpyA3fxVmrNv80CWpz7-9">
          <mxGeometry relative="1" as="geometry" />
        </mxCell>
        <mxCell id="xQpyA3fxVmrNv80CWpz7-8" value="npx @nestjs/cli@version new project-Name&lt;br&gt;npx : node package explore &lt;br&gt;@nestjs/cli : package which will help us to use nestjs cli &lt;br&gt;@Version : reqd version &amp;nbsp;&lt;br&gt;new : will inform to create the new project &lt;br&gt;project-Name : name of the project" style="rounded=1;whiteSpace=wrap;html=1;fontSize=22;" vertex="1" parent="1">
          <mxGeometry x="230" y="525" width="770" height="165" as="geometry" />
        </mxCell>
        <mxCell id="xQpyA3fxVmrNv80CWpz7-9" value="Npm ==&amp;gt; you have to install the particular package ." style="whiteSpace=wrap;html=1;fontSize=22;rounded=1;" vertex="1" parent="1">
          <mxGeometry x="470" y="770" width="350" height="67.5" as="geometry" />
        </mxCell>
        <mxCell id="op3fi858Wa-kUaY7mUPS-1" value="end point :&amp;nbsp;&lt;br&gt;http methods : get / post/ delete/update&amp;nbsp;" style="rounded=1;whiteSpace=wrap;html=1;fontSize=22;" vertex="1" parent="1">
          <mxGeometry x="150" y="880" width="480" height="200" as="geometry" />
        </mxCell>
      </root>
    </mxGraphModel>
  </diagram>
</mxfile>
